<svg id="visual" viewBox="0 0 900 600" width="900" height="600" xmlns="http://www.w3.org/2000/svg" xmlns:xlink="http://www.w3.org/1999/xlink" version="1.1"><path d="M0 31L37.5 34C75 37 150 43 225 39C300 35 375 21 450 23C525 25 600 43 675 47C750 51 825 41 862.5 36L900 31L900 0L862.5 0C825 0 750 0 675 0C600 0 525 0 450 0C375 0 300 0 225 0C150 0 75 0 37.5 0L0 0Z" fill="#ff9b83"></path><path d="M0 55L37.5 55C75 55 150 55 225 50C300 45 375 35 450 39C525 43 600 61 675 69C750 77 825 75 862.5 74L900 73L900 29L862.5 34C825 39 750 49 675 45C600 41 525 23 450 21C375 19 300 33 225 37C150 41 75 35 37.5 32L0 29Z" fill="#ff9379"></path><path d="M0 307L37.5 280C75 253 150 199 225 167C300 135 375 125 450 127C525 129 600 143 675 139C750 135 825 113 862.5 102L900 91L900 71L862.5 72C825 73 750 75 675 67C600 59 525 41 450 37C375 33 300 43 225 48C150 53 75 53 37.5 53L0 53Z" fill="#ff8b6f"></path><path d="M0 325L37.5 302C75 279 150 233 225 205C300 177 375 167 450 171C525 175 600 193 675 186C750 179 825 147 862.5 131L900 115L900 89L862.5 100C825 111 750 133 675 137C600 141 525 127 450 125C375 123 300 133 225 165C150 197 75 251 37.5 278L0 305Z" fill="#ff8264"></path><path d="M0 337L37.5 320C75 303 150 269 225 239C300 209 375 183 450 184C525 185 600 213 675 207C750 201 825 161 862.5 141L900 121L900 113L862.5 129C825 145 750 177 675 184C600 191 525 173 450 169C375 165 300 175 225 203C150 231 75 277 37.5 300L0 323Z" fill="#ff795a"></path><path d="M0 373L37.5 350C75 327 150 281 225 255C300 229 375 223 450 224C525 225 600 233 675 225C750 217 825 193 862.5 181L900 169L900 119L862.5 139C825 159 750 199 675 205C600 211 525 183 450 182C375 181 300 207 225 237C150 267 75 301 37.5 318L0 335Z" fill="#ff7150"></path><path d="M0 433L37.5 406C75 379 150 325 225 298C300 271 375 271 450 282C525 293 600 315 675 300C750 285 825 233 862.5 207L900 181L900 167L862.5 179C825 191 750 215 675 223C600 231 525 223 450 222C375 221 300 227 225 253C150 279 75 325 37.5 348L0 371Z" fill="#f96949"></path><path d="M0 445L37.5 429C75 413 150 381 225 364C300 347 375 345 450 356C525 367 600 391 675 365C750 339 825 263 862.5 225L900 187L900 179L862.5 205C825 231 750 283 675 298C600 313 525 291 450 280C375 269 300 269 225 296C150 323 75 377 37.5 404L0 431Z" fill="#ee6344"></path><path d="M0 457L37.5 444C75 431 150 405 225 393C300 381 375 383 450 401C525 419 600 453 675 429C750 405 825 323 862.5 282L900 241L900 185L862.5 223C825 261 750 337 675 363C600 389 525 365 450 354C375 343 300 345 225 362C150 379 75 411 37.5 427L0 443Z" fill="#e35d3f"></path><path d="M0 505L37.5 511C75 517 150 529 225 539C300 549 375 557 450 555C525 553 600 541 675 544C750 547 825 565 862.5 574L900 583L900 239L862.5 280C825 321 750 403 675 427C600 451 525 417 450 399C375 381 300 379 225 391C150 403 75 429 37.5 442L0 455Z" fill="#d8573b"></path><path d="M0 553L37.5 558C75 563 150 573 225 579C300 585 375 587 450 584C525 581 600 573 675 574C750 575 825 585 862.5 590L900 595L900 581L862.5 572C825 563 750 545 675 542C600 539 525 551 450 553C375 555 300 547 225 537C150 527 75 515 37.5 509L0 503Z" fill="#cd5136"></path><path d="M0 601L37.5 601C75 601 150 601 225 601C300 601 375 601 450 601C525 601 600 601 675 601C750 601 825 601 862.5 601L900 601L900 593L862.5 588C825 583 750 573 675 572C600 571 525 579 450 582C375 585 300 583 225 577C150 571 75 561 37.5 556L0 551Z" fill="#c24b32"></path></svg>